<svg xmlns="http://www.w3.org/2000/svg" viewBox="0 0 100 100" id="svg8608262130">
  <path d="M 1 50 C 1 22.938 22.938 1 50 1 C 77.062 1 99 22.938 99 50 C 99 77.062 77.062 99 50 99 C 22.938 99 1 77.062 1 50 Z" fill="rgba(19,19,19,0.89)" stroke-width="2"></path>
  <g transform="translate(22 22)" id="ss8608262130_2">
    <path d="M 0 56 L 0 0 L 56 0 L 56 56 Z" fill="transparent"></path>
    <path d="M 50.288 15.804 C 49.969 15.246 49.501 14.788 48.937 14.479 L 29.68 3.937 C 29.165 3.654 28.587 3.506 28 3.506 C 27.413 3.506 26.835 3.654 26.32 3.937 L 7.07 14.477 C 6.506 14.785 6.038 15.244 5.718 15.802 C 5.413 16.331 5.252 16.929 5.25 17.539 L 5.25 38.46 C 5.251 39.087 5.421 39.702 5.741 40.24 C 6.061 40.779 6.52 41.222 7.07 41.523 L 26.32 52.06 C 26.834 52.344 27.412 52.493 28 52.493 C 28.588 52.493 29.166 52.344 29.68 52.06 L 48.93 41.523 C 49.48 41.222 49.939 40.779 50.259 40.24 C 50.579 39.702 50.749 39.087 50.75 38.46 L 50.75 17.539 C 50.75 16.931 50.591 16.333 50.288 15.804 Z M 26.25 48.039 L 19.25 44.207 L 19.25 33.25 C 19.249 32.936 19.164 32.629 19.004 32.36 C 18.844 32.09 18.615 31.869 18.34 31.718 L 8.75 26.468 L 8.75 19.468 L 26.25 29.05 Z M 28 26.005 L 10.644 16.502 L 18.187 12.374 L 27.156 17.285 C 27.413 17.426 27.702 17.5 27.996 17.5 C 28.289 17.5 28.578 17.426 28.836 17.285 L 37.804 12.374 L 45.347 16.502 Z M 47.25 26.464 L 37.66 31.714 C 37.385 31.865 37.156 32.086 36.996 32.355 C 36.836 32.625 36.751 32.932 36.75 33.245 L 36.75 44.203 L 29.75 48.035 L 29.75 29.037 L 47.25 19.455 Z" fill="#49AA3B"></path>
  </g>
</svg>
